<svg width="114" height="116" viewBox="0 0 114 116" fill="none" xmlns="http://www.w3.org/2000/svg">
<path d="M114 58C114 89.4802 88.4802 115 57 115C25.5198 115 0 89.4802 0 58C0 26.5198 25.5198 1 57 1C88.4802 1 114 26.5198 114 58Z" fill="url(#paint0_linear_1_25)"/>
<path fill-rule="evenodd" clip-rule="evenodd" d="M57 109C85.1665 109 108 86.1665 108 58C108 29.8335 85.1665 7 57 7C28.8335 7 6 29.8335 6 58C6 86.1665 28.8335 109 57 109ZM57 115C88.4802 115 114 89.4802 114 58C114 26.5198 88.4802 1 57 1C25.5198 1 0 26.5198 0 58C0 89.4802 25.5198 115 57 115Z" fill="black"/>
<circle cx="57" cy="58" r="49.25" stroke="white" stroke-width="3.5"/>
<path d="M43.5 41.5C56 39 63.5 40 67.5 42.5C68 43.5 75 50 77 50.5C78.6 50.9 81 50 82 49.5C87.5 48 89.5 45 93 44.5C96.5 44 100.262 47.0959 98.5 51.5C97.5232 53.9419 94.3185 56.1105 91 58C87.5236 59.9794 83.8986 61.631 81.5 62C75 63 67.7227 60.9664 63.5 63.5C58.5 66.5 63 72 60.5 76.5C59.4141 78.4547 48.5 89 41.5 85.5C35.9 82.7 38.0773 77 39.8659 74.5C34.8218 77.9486 27.9161 81.824 25 81.5C21.4 81.1 18.5 77.5 19 74.5C19.6778 70.433 23 70 29.5 66.5C30.3565 66.0388 31.1762 65.5848 31.9633 65.1378C26.9804 62.1345 23 53.9829 23 47V41C23 40 23 37.5 24.5 37C26 36.5 27.5 41 30.5 42C32.6213 42.7071 35.5267 43.0947 43.5 41.5Z" fill="white"/>
<path fill-rule="evenodd" clip-rule="evenodd" d="M28.7035 37.5433C29.7202 38.8311 30.4539 39.6129 31.2115 39.8655C32.7842 40.3897 35.2314 40.8592 43.0587 39.2937C55.6967 36.7661 63.9331 37.6174 68.6925 40.592L69.2293 40.9275L69.4603 41.3894C69.4852 41.4207 69.5439 41.4942 69.6537 41.6181C69.856 41.8464 70.1439 42.1495 70.505 42.5106C71.2242 43.2297 72.1727 44.1186 73.1727 44.9974C74.1758 45.8788 75.2007 46.7239 76.0753 47.3672C76.5138 47.6897 76.8882 47.942 77.1855 48.1183C77.4459 48.2727 77.5646 48.3187 77.5702 48.3228C77.829 48.3782 78.3753 48.361 79.1654 48.1582C79.92 47.9645 80.6207 47.6741 80.9938 47.4875L81.193 47.3879L81.408 47.3293C83.8332 46.6678 85.482 45.6865 87.0708 44.7088C87.1564 44.6561 87.2428 44.6027 87.3301 44.5488C88.8024 43.6391 90.5122 42.5826 92.6818 42.2726C95.1543 41.9194 97.7131 42.8217 99.3811 44.6399C101.137 46.5542 101.784 49.3494 100.589 52.3356C99.8891 54.0856 98.4926 55.5328 97.0441 56.7057C95.563 57.9051 93.8069 58.991 92.1133 59.9553C88.6244 61.9418 84.6856 63.7864 81.8421 64.2239C78.9979 64.6614 75.9882 64.5623 73.3601 64.4758C72.7501 64.4557 72.1606 64.4363 71.5985 64.4244C68.3719 64.3563 66.1384 64.5409 64.6576 65.4294C63.849 65.9145 63.5623 66.3908 63.4177 66.8456C63.2386 67.4093 63.215 68.1444 63.3051 69.2557C63.3258 69.51 63.3544 69.7983 63.3854 70.1092C63.4722 70.9813 63.5766 72.0311 63.5703 73.0069C63.561 74.4267 63.3373 76.0259 62.4668 77.5927C62.2043 78.0653 61.7748 78.5972 61.3414 79.0853C60.8735 79.6124 60.2823 80.2194 59.599 80.8621C58.2347 82.1452 56.4468 83.6234 54.4485 84.9291C52.4636 86.226 50.1806 87.4123 47.8359 88.0226C45.4867 88.6341 42.89 88.7106 40.4938 87.5125C38.7563 86.6437 37.4857 85.476 36.6795 84.0721C35.8779 82.6762 35.6186 81.1925 35.6634 79.8144C35.6636 79.8092 35.6638 79.804 35.6639 79.7988C34.6478 80.3822 33.6295 80.9335 32.6404 81.4276C31.2237 82.1353 29.8217 82.7483 28.5431 83.1664C27.3256 83.5646 25.9718 83.8718 24.7515 83.7362C22.2898 83.4627 20.1633 82.1178 18.7393 80.4218C17.335 78.7493 16.3929 76.4566 16.7806 74.1301C17.0016 72.8043 17.4625 71.6607 18.2228 70.6628C18.9642 69.6898 19.9019 68.9725 20.8948 68.3666C21.871 67.7711 23.0221 67.2132 24.2349 66.6282C24.2912 66.601 24.3479 66.5736 24.4049 66.5462C25.4687 66.0331 26.6349 65.4707 27.9351 64.7845C26.2088 63.0538 24.7368 60.8752 23.5945 58.5551C21.8492 55.0104 20.75 50.8884 20.75 47V41C20.75 40.9864 20.75 40.9722 20.75 40.9575C20.7497 40.4594 20.7492 39.372 20.9951 38.3065C21.2224 37.3217 21.8596 35.5084 23.7885 34.8655C25.4271 34.3192 26.6797 35.3203 27.1732 35.7751C27.6821 36.2441 28.185 36.8839 28.5802 37.3867C28.6226 37.4406 28.6637 37.4929 28.7035 37.5433ZM32.0806 62.4741C35.7634 60.3251 38.7116 58.343 41.516 56.4577C41.7774 56.282 42.0375 56.1071 42.2969 55.933C43.3694 54.1542 45.1755 52.5906 46.8678 51.3651C48.8073 49.9607 50.9201 48.7744 52.4938 47.9876C52.7529 47.858 53.0329 47.7136 53.3339 47.5584C55.8278 46.2722 59.758 44.2453 65.1372 43.7884C61.5474 42.1774 54.9739 41.4998 43.9413 43.7063C35.8221 45.3302 32.4584 45.0245 29.7885 44.1345C27.6187 43.4113 26.1287 41.5449 25.2568 40.4399C25.2509 40.6334 25.25 40.8228 25.25 41V47C25.25 51.5701 26.141 53.5397 27.6317 56.5674C28.8727 59.0881 30.4458 61.1527 32.0806 62.4741ZM68.9186 47.2211L68.8503 48.245C62.6684 47.8329 58.4201 50.0101 55.3761 51.5701C55.0746 51.7247 54.7849 51.8732 54.5062 52.0125C53.0799 52.7256 51.1927 53.7893 49.5071 55.0099C47.7502 56.2822 46.5068 57.5176 46.0125 58.5062C45.8079 58.9154 45.6275 59.6646 45.626 60.6884C45.6247 61.6818 45.7931 62.7751 46.1322 63.7816C46.3818 64.5224 46.7892 65.2458 47.2385 66.0436C47.2598 66.0813 47.2811 66.1191 47.3025 66.1572C47.5121 66.5296 47.7717 66.9938 47.9541 67.4291C48.0476 67.6521 48.1562 67.9488 48.2187 68.2843C48.279 68.6076 48.328 69.1311 48.1345 69.7115C47.8711 70.5018 47.3716 71.1816 46.9095 71.71C46.4231 72.2662 45.8363 72.8123 45.2248 73.3289C44.1061 74.274 42.3208 75 41.4875 76.1162C40.6541 77.2323 40.2052 78.6037 40.161 79.9607C40.138 80.67 40.2725 81.2925 40.5818 81.8311C40.8864 82.3615 41.4437 82.9563 42.5062 83.4875C43.61 84.0394 45.0025 84.1102 46.7024 83.6678C48.4068 83.2241 50.2327 82.3082 51.9871 81.1619C53.728 80.0244 55.3098 78.7186 56.516 77.5841C57.118 77.0179 57.6123 76.5077 57.9764 76.0976C58.1586 75.8925 58.2994 75.7221 58.4009 75.5901C58.5112 75.4467 58.5424 75.3906 58.5331 75.4073C58.9127 74.7241 59.064 73.9484 59.0704 72.9775C59.0751 72.2532 59.0082 71.5845 58.9307 70.809C58.894 70.4421 58.8549 70.0513 58.8199 69.6193C58.7225 68.4181 58.6677 66.9345 59.1291 65.4826C59.6252 63.9218 60.651 62.5855 62.3424 61.5707C65.0843 59.9255 68.6007 59.8601 71.6935 59.9254C72.3692 59.9397 73.0367 59.961 73.6963 59.982C76.293 60.0647 78.7692 60.1437 81.1579 59.7762C83.1116 59.4756 86.4228 58.017 89.8867 56.0447C91.5116 55.1196 93.017 54.1764 94.2122 53.2086C95.4399 52.2144 96.1342 51.3563 96.4109 50.6644C96.9781 49.2465 96.6244 48.2917 96.0651 47.682C95.4177 46.9763 94.3457 46.5806 93.3182 46.7274C92.1164 46.8991 91.1487 47.4831 89.4292 48.5412C87.8053 49.5405 85.7611 50.7752 82.7982 51.6134C82.1698 51.91 81.2657 52.2649 80.2845 52.5168C79.2506 52.7823 77.8065 53.0209 76.4543 52.6828C75.877 52.5385 75.3201 52.2438 74.8906 51.9891C74.4204 51.7104 73.9158 51.365 73.409 50.9922C72.393 50.2449 71.2617 49.3087 70.2022 48.3776C69.7629 47.9915 69.3307 47.6017 68.9186 47.2211ZM41.1961 62.0839C38.8273 63.6486 36.2005 65.319 33.0744 67.0943C32.2728 67.5495 31.4384 68.0117 30.5667 68.4811C28.9735 69.339 27.5658 70.0178 26.3739 70.5925C26.3121 70.6224 26.2508 70.6519 26.1901 70.6812C24.9306 71.2888 23.9901 71.7496 23.2385 72.2081C22.5037 72.6564 22.0775 73.0287 21.8022 73.39C21.5459 73.7265 21.3373 74.1622 21.2194 74.8699C21.1071 75.5435 21.365 76.5508 22.1856 77.5282C22.9867 78.4822 24.1102 79.1373 25.2485 79.2638C25.4863 79.2902 26.0892 79.2345 27.1443 78.8894C28.1383 78.5643 29.3248 78.0536 30.6295 77.4019C33.2347 76.1005 36.1321 74.3271 38.5961 72.6426C39.9581 71.7114 41.2858 70.7657 42.3208 69.8913C42.8379 69.4545 43.2397 69.0706 43.5222 68.7476C43.5374 68.7302 43.5519 68.7134 43.5659 68.697C43.5134 68.6008 43.4521 68.4907 43.3808 68.3641C43.3489 68.3073 43.3154 68.248 43.2804 68.1863C42.8666 67.4545 42.2595 66.3811 41.8678 65.2184C41.5238 64.1976 41.301 63.1301 41.1961 62.0839Z" fill="black"/>
<path d="M90 40.5C90 47.4036 84.4036 53 77.5 53C70.5964 53 65 47.4036 65 40.5C65 33.5964 70.5964 28 77.5 28C84.4036 28 90 33.5964 90 40.5Z" fill="white"/>
<path fill-rule="evenodd" clip-rule="evenodd" d="M77.5 48.5C81.9183 48.5 85.5 44.9183 85.5 40.5C85.5 36.0817 81.9183 32.5 77.5 32.5C73.0817 32.5 69.5 36.0817 69.5 40.5C69.5 44.9183 73.0817 48.5 77.5 48.5ZM77.5 53C84.4036 53 90 47.4036 90 40.5C90 33.5964 84.4036 28 77.5 28C70.5964 28 65 33.5964 65 40.5C65 47.4036 70.5964 53 77.5 53Z" fill="black"/>
<defs>
<linearGradient id="paint0_linear_1_25" x1="4" y1="55.5" x2="57" y2="115" gradientUnits="userSpaceOnUse">
<stop offset="0.48" stop-color="#117865"/>
<stop offset="0.4801" stop-color="#419384"/>
</linearGradient>
</defs>
</svg>
